<svg width="25" height="24" viewBox="0 0 25 24" fill="none" xmlns="http://www.w3.org/2000/svg">
<path d="M19.4979 14.826C19.1894 15.125 19.0476 15.5574 19.1179 15.9815L20.177 21.8426C20.2663 22.3394 20.0566 22.8421 19.6409 23.1292C19.2335 23.427 18.6914 23.4627 18.2471 23.2245L12.9709 20.4726C12.7875 20.3749 12.5838 20.3225 12.3753 20.3166H12.0525C11.9405 20.3333 11.8309 20.369 11.7308 20.4238L6.45348 23.1887C6.19259 23.3198 5.89715 23.3662 5.60767 23.3198C4.90244 23.1864 4.43188 22.5145 4.54744 21.8057L5.60767 15.9446C5.67796 15.5169 5.53619 15.0821 5.22765 14.7783L0.925961 10.6089C0.566196 10.2598 0.441112 9.73567 0.605508 9.26273C0.765139 8.79099 1.17256 8.44671 1.66455 8.36928L7.58519 7.51037C8.03549 7.46391 8.43099 7.18991 8.63351 6.78488L11.2424 1.43606C11.3043 1.31693 11.3842 1.20733 11.4807 1.11441L11.5879 1.03102C11.6439 0.969077 11.7082 0.917852 11.7797 0.876157L11.9095 0.828506L12.112 0.745117H12.6136C13.0615 0.791577 13.4558 1.05961 13.6619 1.45988L16.3053 6.78488C16.4959 7.17443 16.8664 7.44485 17.2941 7.51037L23.2147 8.36928C23.715 8.44075 24.1332 8.78622 24.2988 9.26273C24.4548 9.74043 24.3202 10.2646 23.9533 10.6089L19.4979 14.826Z" fill="#F2994A"/>
</svg>
